PathFileType  4	(X/Y/Z) C:\Users\antoi\Documents\MyRepositories\mobilecap\ResultsAnalysis
DataRate	CameraRate	NumFrames	NumMarkers	Units	OrigDataRate	OrigDataStartFrame	OrigNumFrames
100.0	100.0	4	51	mm	100.0	505	1346
Frame#	Time	r_knee			r_shank_antsup			r_ankle			r_calc			r_5meta			r_toe			L_knee			L_shank_antsup			L_ankle			L_calc			L_5meta			L_toe			r_sh2			r_sh3			r_sh4			L_sh2			L_sh3			r_thigh1			r_thigh2			r_thigh3			r_thigh4			r_thigh5			L_thigh1			L_thigh2			L_thigh3			L_thigh4			r.ASIS			r.PSIS			L.ASIS			L.PSIS			C7			R_Shoulder			L_Shoulder			R_Sternum			L_Sternum			R_humerus			R_elbow_med			R_elbow_lat			R_forearm			R_wrist_radius			R_wrist_ulna			L_humerus			L_elbow_med			L_elbow_lat			L_forearm			L_wrist_radius			L_wrist_ulna			R_HJC			L_HJC			R_HJC_reg			L_HJC_reg			
		X1	Y1	Z1	X2	Y2	Z2	X3	Y3	Z3	X4	Y4	Z4	X5	Y5	Z5	X6	Y6	Z6	X7	Y7	Z7	X8	Y8	Z8	X9	Y9	Z9	X10	Y10	Z10	X11	Y11	Z11	X12	Y12	Z12	X13	Y13	Z13	X14	Y14	Z14	X15	Y15	Z15	X16	Y16	Z16	X17	Y17	Z17	X18	Y18	Z18	X19	Y19	Z19	X20	Y20	Z20	X21	Y21	Z21	X22	Y22	Z22	X23	Y23	Z23	X24	Y24	Z24	X25	Y25	Z25	X26	Y26	Z26	X27	Y27	Z27	X28	Y28	Z28	X29	Y29	Z29	X30	Y30	Z30	X31	Y31	Z31	X32	Y32	Z32	X33	Y33	Z33	X34	Y34	Z34	X35	Y35	Z35	X36	Y36	Z36	X37	Y37	Z37	X38	Y38	Z38	X39	Y39	Z39	X40	Y40	Z40	X41	Y41	Z41	X42	Y42	Z42	X43	Y43	Z43	X44	Y44	Z44	X45	Y45	Z45	X46	Y46	Z46	X47	Y47	Z47	X48	Y48	Z48	X49	Y49	Z49	X50	Y50	Z50	X51	Y51	Z51	

505	5.04000000	-210.77017	506.05312	-403.36266	-185.36013	411.69770	-397.52335	-278.18777	93.80789	-388.55486	-336.80210	58.03073	-437.98427	-161.16628	42.66423	-339.66539	-125.19637	70.95796	-393.43721	-209.29443	509.73678	-780.10407	-181.44525	424.35334	-785.96307	-265.86159	97.44291	-819.15105	-334.77043	50.80386	-770.91914	-163.11945	39.71109	-868.26365	-113.54138	66.44843	-815.96595	-200.21253	299.27451	-390.78144	-252.64543	421.05221	-364.39819	-273.49063	309.50817	-354.12708	-264.25857	450.35020	-813.53204	-281.97067	331.17351	-834.17817	-136.44350	785.49803	-400.32271	-136.36353	673.32899	-407.11751	-191.01960	647.16084	-378.52180	-248.79163	778.07294	-394.92401	-241.01863	663.53806	-398.86891	-118.30546	754.21047	-773.31285	-113.01781	613.86514	-765.38517	-224.78427	751.29415	-802.93984	-220.56214	617.74166	-787.01109	-106.14963	979.58229	-461.34500	-310.17779	990.32086	-554.41298	-102.41862	977.33423	-721.17050	-306.53038	989.33829	-644.19104	-305.71582	1449.46866	-595.68380	-225.51538	1423.55420	-426.63722	-220.59540	1425.35860	-752.93735	-171.22826	1391.49579	-571.74334	-174.18814	1394.96311	-615.99682	-186.38667	1292.58444	-373.06404	-250.21790	1090.95925	-434.17275	-256.32839	1101.09859	-366.44439	-214.49901	1037.24466	-330.71903	-168.65672	871.31908	-337.05580	-213.45403	873.62231	-315.28795	-194.52979	1284.31246	-814.66035	-244.03999	1086.26252	-749.08776	-251.75953	1096.09197	-827.16217	-209.97436	1040.29932	-857.69443	-159.38794	867.00957	-857.73755	-206.64376	871.71172	-880.45736	-179.11938	884.09861	-491.72419	-172.96062	883.36544	-681.18533	-171.92925	894.07023	-499.94611	-164.96693	892.19481	-671.30346	
506	5.05000000	-209.92482	506.04405	-403.35902	-184.55578	411.52145	-397.54091	-278.14293	93.92039	-388.63303	-336.78375	58.05207	-438.02226	-161.15087	42.76511	-339.58315	-125.12437	70.89133	-393.46773	-208.23116	509.53140	-779.73177	-180.57614	424.25809	-785.92068	-265.82224	97.46284	-819.09522	-334.74957	50.79658	-770.86655	-163.10558	39.72774	-868.24384	-113.52118	66.41064	-815.96400	-199.72311	299.11926	-390.74472	-251.85678	421.15448	-364.54885	-272.98162	309.25883	-354.33285	-263.29308	450.31054	-813.47094	-281.18066	331.30471	-834.43308	-135.77630	785.39286	-400.11561	-135.73314	673.48886	-406.78245	-190.50932	647.23429	-378.62014	-248.44105	778.05956	-395.04047	-240.38726	663.47164	-399.53113	-117.02632	754.17986	-773.00143	-111.81508	613.88530	-765.11971	-224.35840	752.03457	-803.70707	-219.22902	617.68432	-787.05623	-105.80289	979.70690	-460.91484	-309.59513	989.85990	-554.79389	-101.39584	977.42990	-720.77068	-305.64463	989.02354	-644.06937	-305.33036	1449.28578	-595.67759	-225.13275	1423.43825	-426.72651	-219.87639	1425.17874	-753.22055	-170.79935	1391.19050	-571.70001	-173.74532	1394.75400	-616.09233	-187.20871	1292.17401	-373.01352	-250.94183	1090.93680	-435.52958	-258.01767	1101.01654	-367.69656	-216.90434	1036.85291	-331.59557	-171.66615	870.67050	-337.60454	-216.80332	873.38894	-316.32716	-195.02528	1283.68601	-814.36610	-244.73393	1085.94892	-748.04824	-253.29773	1095.81074	-826.01840	-212.31435	1039.65876	-856.94862	-163.44868	865.89450	-857.13175	-210.82897	870.89554	-879.20741	-178.44498	884.02225	-491.51185	-171.77648	883.31115	-680.95565	-171.25965	893.79876	-499.87937	-163.67588	892.19319	-671.23987	
507	5.06000000	-209.07794	506.01768	-403.30868	-183.87913	411.40420	-397.48877	-278.15950	93.99407	-388.68514	-336.77399	58.09068	-438.05096	-161.10769	42.87189	-339.42635	-125.06240	70.83139	-393.50127	-207.27459	509.33983	-779.34234	-179.82852	424.12553	-785.76718	-265.80184	97.48137	-819.09621	-334.63899	50.85301	-770.87428	-163.10172	39.72941	-868.25342	-113.50158	66.36560	-815.94746	-199.25421	299.06737	-390.76814	-251.21931	421.26005	-364.58106	-272.57859	309.04685	-354.40996	-262.44081	450.11945	-813.31158	-280.52774	331.33003	-834.60009	-135.15206	785.23448	-399.97961	-134.99838	673.66977	-406.48856	-190.02115	647.36300	-378.46113	-247.98955	777.95143	-395.28252	-239.83215	663.52671	-399.93895	-115.78391	754.15612	-772.85415	-110.64988	613.84456	-764.99737	-223.92596	752.80459	-804.42932	-218.13653	617.66836	-787.03178	-105.45367	979.82549	-460.62109	-309.15027	989.34009	-554.90920	-100.35723	977.62091	-720.60298	-304.86491	988.70228	-643.98133	-304.99377	1449.14766	-595.57014	-224.66735	1423.55507	-426.73418	-219.08379	1424.91223	-753.42884	-170.43279	1390.96434	-571.72276	-173.35465	1394.49063	-616.17588	-187.95965	1291.92093	-372.89707	-251.31372	1090.88984	-436.64968	-259.55240	1101.12278	-368.91274	-219.10834	1036.52766	-332.53961	-174.26570	870.21710	-338.09357	-219.70275	873.20900	-317.36662	-194.87465	1283.24820	-814.36133	-245.52795	1086.22453	-746.77437	-254.63065	1095.55548	-824.99645	-214.38962	1039.05366	-856.18860	-167.00232	864.89196	-856.47494	-214.66069	870.21831	-878.12555	-177.70536	883.91754	-491.39896	-170.66913	883.31749	-680.82982	-170.57891	893.45078	-500.03310	-162.33218	892.22335	-671.45772	
508	5.07000000	-208.26289	505.94987	-403.26758	-183.27226	411.32986	-397.46975	-278.17519	94.02559	-388.72525	-336.74328	58.12545	-438.10239	-161.05591	42.68486	-339.61094	-125.00736	70.79782	-393.53059	-206.40450	509.29991	-779.24268	-179.12148	423.95589	-785.60546	-265.81685	97.45998	-819.08578	-334.58389	50.86533	-770.82414	-163.09757	39.72347	-868.27034	-113.47874	66.32712	-815.92053	-198.82843	299.00249	-390.80788	-250.64027	421.29052	-364.59560	-272.25272	309.02855	-354.44242	-261.68910	449.99720	-813.23050	-279.92525	331.28437	-834.61390	-134.76410	785.15021	-399.95187	-134.40102	673.74210	-406.40592	-189.45162	647.33958	-378.41551	-247.54751	777.94113	-395.47510	-239.25776	663.52031	-400.22357	-114.78626	754.07811	-772.84721	-109.62643	613.82564	-765.14228	-223.27356	752.96246	-803.93319	-217.20753	617.60377	-786.90652	-105.10572	979.96256	-460.45043	-308.56558	988.78709	-554.92332	-99.56866	977.81210	-720.58600	-304.21903	988.36097	-644.04589	-304.59525	1449.00922	-595.66265	-224.26426	1423.78890	-426.76468	-218.30261	1424.64212	-753.51147	-170.06129	1390.77086	-571.83584	-172.94975	1394.17537	-616.23397	-188.50682	1291.83437	-372.74937	-251.84417	1091.10660	-437.52143	-260.91441	1101.40944	-369.87753	-221.06124	1036.35394	-333.31207	-176.46653	869.83227	-338.61962	-222.16190	872.99864	-318.44651	-194.53850	1282.94196	-814.35969	-246.24184	1086.47062	-745.72155	-255.70007	1095.38395	-824.16604	-216.17620	1038.56427	-855.50841	-170.19686	863.95577	-855.61893	-218.04303	869.63219	-876.95676	-176.92590	883.81587	-491.38288	-169.68132	883.31476	-680.80631	-169.68413	893.07568	-500.11400	-161.31912	892.25556	-671.64218	
